<svg width="397" height="151" viewBox="0 0 397 151" fill="none" xmlns="http://www.w3.org/2000/svg">
<rect x="150.959" y="56.6956" width="110" height="110" rx="55" transform="rotate(121.025 150.959 56.6956)" fill="#070F1F"/>
<path d="M39.0703 48.4386C18.5863 59.7431 18.1049 88.9845 38.2037 101.073C38.2037 101.073 49.8658 105.162 55.0889 108.303C60.3119 111.445 70.3419 120.403 70.3419 120.403C90.4408 132.491 116.046 118.361 116.431 94.9677C116.431 94.9677 115.653 84.4731 114.867 76.9112C114.081 69.3493 117.047 57.562 117.047 57.562C117.432 34.1689 92.3083 19.0581 71.8243 30.3626C71.8243 30.3626 61.7202 39.629 57.4133 42.3554C53.1063 45.0817 39.0703 48.4386 39.0703 48.4386Z" fill="white"/>
<path fill-rule="evenodd" clip-rule="evenodd" d="M119.475 95.0266C119.052 120.76 90.8856 136.304 68.7764 123.006L68.53 122.858L68.2898 122.643L68.208 122.57L67.8878 122.287C67.6082 122.04 67.2016 121.683 66.6969 121.244C65.6866 120.365 64.2868 119.162 62.7277 117.863C59.5512 115.218 55.9062 112.34 53.5233 110.906C51.1526 109.48 47.1479 107.754 43.571 106.335C41.8161 105.639 40.2197 105.039 39.0618 104.613C38.4834 104.4 38.0156 104.231 37.6938 104.116L37.3252 103.985L37.2314 103.951L37.2034 103.942L36.9067 103.838L36.6382 103.676C14.529 90.3783 15.0585 58.2121 37.5914 45.7769L37.952 45.5779L38.3527 45.4821L38.3878 45.4736L38.5004 45.4463C38.6003 45.422 38.7491 45.3857 38.9408 45.3382C39.3243 45.2432 39.8795 45.1039 40.56 44.9282C41.9227 44.5761 43.7801 44.0797 45.7654 43.5009C47.756 42.9205 49.8455 42.2659 51.6817 41.5988C53.5752 40.9109 54.9961 40.2811 55.7776 39.7864C57.7036 38.5672 61.1323 35.7281 64.2335 33.0389C65.7487 31.7249 67.1326 30.4936 68.1382 29.5904C68.6406 29.139 69.0478 28.7703 69.3287 28.5151L69.6514 28.2212L69.7598 28.1221L70.0281 27.8761L70.3454 27.7009C92.8783 15.2657 120.515 31.8879 120.091 57.6209L120.085 57.9713L120 58.3102L119.999 58.3145L119.994 58.3349L119.972 58.4245C119.952 58.5055 119.922 58.6283 119.885 58.7889C119.809 59.1103 119.7 59.5826 119.571 60.1748C119.314 61.3609 118.978 63.0196 118.666 64.9044C118.03 68.7517 117.547 73.2522 117.895 76.606C118.292 80.4202 118.685 84.9604 118.978 88.5358C119.125 90.3259 119.247 91.8788 119.333 92.9845C119.376 93.5375 119.409 93.9787 119.432 94.282L119.467 94.75L119.478 94.8892L119.475 95.0266ZM113.384 95.0437L113.36 94.7221C113.337 94.4219 113.304 93.9842 113.261 93.4351C113.176 92.3367 113.055 90.7934 112.909 89.0146C112.617 85.4521 112.228 80.964 111.838 77.2164C111.401 73.0082 112.007 67.8341 112.658 63.8974C112.989 61.8902 113.346 60.1294 113.62 58.8691C113.757 58.2381 113.874 57.7305 113.957 57.3777C113.975 57.3021 113.991 57.2336 114.006 57.1725C114.111 36.4243 91.8915 23.0537 73.6104 32.8573L73.4347 33.0172C73.1463 33.2793 72.7304 33.6559 72.2183 34.1159C71.1948 35.0353 69.7835 36.291 68.2343 37.6344C65.2067 40.2599 61.4299 43.4172 59.0489 44.9243C57.6769 45.7928 55.7283 46.605 53.7787 47.3133C51.7717 48.0424 49.5447 48.7382 47.488 49.3378C45.4258 49.939 43.5051 50.4523 42.1014 50.8149C41.3988 50.9964 40.8237 51.1407 40.4228 51.2399C40.3429 51.2597 40.2698 51.2777 40.2041 51.2939C22.1957 61.5548 21.7977 87.4107 39.5131 98.3144L39.7363 98.3939C40.0726 98.5145 40.5568 98.6894 41.1533 98.909C42.3453 99.3477 43.9908 99.9661 45.8043 100.685C49.3643 102.097 53.8021 103.985 56.6544 105.701C59.4946 107.409 63.4761 110.58 66.6204 113.199C68.2217 114.533 69.6558 115.765 70.6894 116.664C71.2065 117.114 71.6243 117.481 71.9137 117.737L72.1445 117.941C90.1579 128.546 112.943 115.925 113.384 95.0437Z" fill="#070F1F"/>
<path d="M77.4549 52.285C67.2386 46.1403 54.2236 53.323 54.0278 65.2137L53.7148 84.2271C53.519 96.1179 66.2894 103.799 76.7014 98.0526L93.3504 88.8646C103.762 83.1185 104.007 68.255 93.7909 62.1103L77.4549 52.285Z" fill="#070F1F"/>
<path d="M120.5 69.0367C120.5 54.2332 108.507 47.0811 119 47.0811H371.762C385.314 47.0811 396.301 58.0674 396.301 71.6197C396.301 85.172 385.314 96.1583 371.762 96.1583L120.5 96.1583C115.014 96.1583 120.5 92.7737 120.5 82.7878V69.0367Z" fill="#070F1F"/>
<path d="M132 74.7221C132 70.4424 135.47 63.8706 139.749 63.8706C144.029 63.8706 147.498 67.34 147.498 71.6197V103.907C147.498 108.187 144.029 111.656 139.749 111.656C135.47 111.656 132 108.187 132 103.907L132 74.7221Z" fill="#070F1F"/>
<path d="M168.082 47.0811C166.764 43.0092 168.997 38.6403 173.069 37.3228C177.141 36.0053 181.509 38.2382 182.827 42.31L192.767 73.0296C194.084 77.1014 191.851 81.4703 187.78 82.7878C183.708 84.1053 179.339 81.8725 178.021 77.8006L168.082 47.0811Z" fill="#070F1F"/>
<path d="M291.779 36.7458C291.779 32.4679 295.407 29 299.883 29C304.36 29 307.988 32.4679 307.988 36.7458V69.0201C307.988 73.298 304.36 76.7659 299.883 76.7659C295.407 76.7659 291.779 73.298 291.779 69.0201V36.7458Z" fill="#070F1F"/>
<rect x="332.184" y="58.7046" width="25.8301" height="25.8301" rx="10" transform="rotate(90 332.184 58.7046)" fill="#070F1F"/>
<rect x="352.985" y="57.4188" width="18" height="18" rx="9" transform="rotate(90 352.985 57.4188)" fill="#070F1F"/>
<path d="M299.922 32.8748C302.057 32.8748 303.792 34.6051 303.792 36.7395V70.3284C303.792 72.4682 302.057 74.2029 299.918 74.2029C297.778 74.2029 296.043 72.4682 296.043 70.3284V36.7493C296.043 34.6094 297.783 32.8748 299.922 32.8748Z" fill="#00E55C"/>
<path d="M283.128 50.9558C294.54 50.9558 303.792 60.2075 303.792 71.6199C303.792 83.0324 294.54 92.284 283.128 92.284C271.715 92.284 262.464 83.0324 262.464 71.6199C262.464 60.2075 271.715 50.9558 283.128 50.9558Z" fill="white"/>
<path d="M283.128 59.6372C289.747 59.6372 295.112 65.0029 295.112 71.6218C295.112 78.2407 289.747 83.6064 283.128 83.6064C276.509 83.6064 271.143 78.2407 271.143 71.6218C271.143 65.0029 276.509 59.6372 283.128 59.6372Z" fill="#070F1F"/>
<path d="M343.837 67.7473C345.971 67.7473 347.707 69.4776 347.707 71.6121V88.4114C347.707 90.5513 345.972 92.2859 343.832 92.2859C341.692 92.2859 339.958 90.5513 339.958 88.4114V71.6218C339.958 69.482 341.697 67.7473 343.837 67.7473Z" fill="#00E55C"/>
<path d="M327.043 50.9578C338.455 50.9578 347.707 60.2094 347.707 71.6218C347.707 83.0343 338.455 92.2859 327.043 92.2859C315.63 92.2859 306.378 83.0343 306.378 71.6218C306.378 60.2094 315.63 50.9578 327.043 50.9578Z" fill="white"/>
<path d="M327.043 59.6371C333.662 59.6371 339.027 65.0028 339.027 71.6217C339.027 78.2406 333.662 83.6063 327.043 83.6063C320.424 83.6063 315.058 78.2406 315.058 71.6217C315.058 65.0028 320.424 59.6371 327.043 59.6371Z" fill="#070F1F"/>
<path d="M370.958 50.9557C382.37 50.9557 391.622 60.2073 391.622 71.6198C391.622 83.0322 382.37 92.2839 370.958 92.2839C359.545 92.2839 350.293 83.0322 350.293 71.6198C350.293 60.2073 359.545 50.9557 370.958 50.9557Z" fill="#00E55C"/>
<path d="M370.957 59.6371C377.576 59.6371 382.942 65.0028 382.942 71.6217C382.942 78.2406 377.576 83.6063 370.957 83.6063C364.338 83.6063 358.973 78.2406 358.973 71.6217C358.973 65.0028 364.338 59.6371 370.957 59.6371Z" fill="#070F1F"/>
<path d="M264.868 52.5041C266.565 53.8074 266.884 56.2398 265.581 57.9369L241.232 90.8371C239.929 92.5342 237.496 92.8534 235.799 91.5501L235.694 91.4695C233.997 90.1661 233.678 87.7338 234.981 86.0367L259.33 53.1364C260.633 51.4393 263.066 51.1201 264.763 52.4235L264.868 52.5041Z" fill="white"/>
<path d="M139.95 108.093C137.812 108.093 136.074 106.364 136.074 104.231L136.074 73.2397C136.074 71.1009 137.812 69.3671 139.955 69.3671C142.098 69.3671 143.835 71.1009 143.835 73.2397V104.221C143.835 106.36 142.093 108.093 139.95 108.093Z" fill="white"/>
<path d="M156.769 92.6029C145.34 92.6029 136.074 83.3558 136.074 71.9488C136.074 60.5419 145.34 51.2948 156.769 51.2948C168.199 51.2948 177.465 60.5419 177.465 71.9489C177.465 83.3558 168.199 92.6029 156.769 92.6029Z" fill="white"/>
<path d="M156.82 59.9557C163.439 59.9557 168.804 65.3212 168.804 71.9398C168.804 78.5584 163.439 83.9239 156.82 83.9239C150.201 83.9239 144.836 78.5584 144.836 71.9398C144.836 65.3212 150.201 59.9557 156.82 59.9557Z" fill="#070F1F"/>
<path d="M174.52 40.8061C176.559 40.1528 178.742 41.2744 179.397 43.3111L193.694 87.83C194.348 89.8668 193.225 92.0475 191.185 92.7007C189.146 93.354 186.963 92.2325 186.309 90.1957L172.012 45.6768C171.357 43.6401 172.48 41.4594 174.52 40.8061Z" fill="white"/>
<path d="M228.872 68.0401C231.012 68.0401 232.747 69.7747 232.747 71.9146V88.7041C232.747 90.844 231.012 92.5787 228.872 92.5787C226.732 92.5787 224.998 90.844 224.998 88.7041V71.9146C224.998 69.7747 226.732 68.0401 228.872 68.0401Z" fill="white"/>
<path d="M212.083 51.2505C223.495 51.2505 232.747 60.5021 232.747 71.9146C232.747 83.327 223.495 92.5787 212.083 92.5787C200.67 92.5787 191.418 83.327 191.418 71.9146C191.418 60.5021 200.67 51.2505 212.083 51.2505Z" fill="white"/>
<path d="M212.083 59.6375C218.702 59.6375 224.067 65.0031 224.067 71.622C224.067 78.241 218.702 83.6066 212.083 83.6066C205.464 83.6066 200.098 78.241 200.098 71.622C200.098 65.0031 205.464 59.6375 212.083 59.6375Z" fill="#070F1F"/>
<path d="M229.562 52.2295C231.277 50.9496 233.705 51.3022 234.985 53.017L244.85 66.2639C246.13 67.9787 245.777 70.4065 244.062 71.6864L243.956 71.7655C242.241 73.0454 239.814 72.6929 238.534 70.978L228.669 57.7311C227.389 56.0163 227.742 53.5886 229.456 52.3086L229.562 52.2295Z" fill="white"/>
</svg>
