<svg width="78" height="70" viewBox="0 0 78 70" fill="none" xmlns="http://www.w3.org/2000/svg">
<path d="M8.08531 15.6857C10.1456 15.6857 12.1215 14.8703 13.5783 13.4189C15.0352 11.9675 12.7542 7.94646 15.8536 7.94646C18.953 7.94646 17.413 2.47401 13.5783 2.47401C9.74363 2.47401 10.1456 0.207246 8.08531 0.207246C6.02503 0.207246 4.04913 1.02263 2.5923 2.47401C1.13546 3.92539 0.317014 5.89389 0.317014 7.94646C0.317014 9.99903 -0.561374 13.4189 2.5923 13.4189C5.74597 13.4189 6.02503 15.6857 8.08531 15.6857ZM41.9717 2.47401C36.1562 -3.3304 26.421 2.75358 25.3284 3.84212C24.2357 4.93066 23.6219 6.40704 23.6219 7.94646C23.6219 9.48589 22.8224 12.0508 25.3284 12.0508C27.8343 12.0508 27.9029 13.7509 29.4481 13.7509C29.4481 13.7509 60.8015 7.93892 64.9212 12.0508C69.041 16.1627 75.2009 13.1393 76.2935 12.0508C77.3862 10.9623 78 9.48589 78 7.94646C78 6.40704 77.3862 4.93066 76.2935 3.84212C75.2009 2.75358 73.719 2.14205 72.1738 2.14205C72.1738 2.14205 47.7872 8.27843 41.9717 2.47401ZM23.6219 35.0337C23.6219 33.4943 24.2357 32.0179 25.3284 30.9294C26.421 29.8408 27.6714 26.2737 46.8577 32.0781C66.044 37.8826 65.0718 29.5613 69.5605 29.5613C74.0492 29.5613 75.2009 29.8408 76.2935 30.9294C77.3862 32.0179 78 33.4943 78 35.0337C78 36.5731 77.3862 38.0495 76.2935 39.1381C75.2009 40.2266 74.6933 40.8381 72.1738 40.8381C69.6542 40.8381 66.698 35.0337 50.811 40.8381C34.924 46.6426 37.1432 43.9497 34.0257 40.8381C30.9082 37.7266 26.421 40.2266 25.3284 39.1381C24.2357 38.0495 23.6219 36.5731 23.6219 35.0337ZM23.6219 62.121C23.6219 60.5815 21.2086 58.0166 25.3284 58.0166C29.4481 58.0166 34.1121 54.2326 38.9118 59.0231C43.7114 63.8136 72.1738 56.3166 72.1738 56.3166C73.719 56.3166 75.2009 56.9281 76.2935 58.0166C77.3862 59.1052 78 60.5815 78 62.121C78 63.6604 77.3862 65.1368 76.2935 66.2253C75.2009 67.3139 73.719 67.9254 72.1738 67.9254H29.4481C27.9029 67.9254 26.421 67.3139 25.3284 66.2253C24.2357 65.1368 23.6219 63.6604 23.6219 62.121ZM15.8536 35.0337C15.8536 37.0863 15.0352 39.0548 13.5783 40.5062C12.1215 41.9576 10.1456 42.7729 8.08531 42.7729C6.02503 42.7729 4.04913 41.9576 2.5923 40.5062C1.13546 39.0548 0.317014 37.0863 0.317014 35.0337C0.317014 32.9812 -0.75879 29.5613 2.5923 29.5613C5.94338 29.5613 6.02503 27.2945 8.08531 27.2945C10.1456 27.2945 13.5783 26.6996 13.5783 29.5613C13.5783 32.423 15.8536 32.9812 15.8536 35.0337ZM8.08531 69.8602C10.1456 69.8602 13.5783 70.8437 13.5783 67.5934C13.5783 64.3431 15.8536 64.1735 15.8536 62.121C15.8536 60.0684 15.0352 58.0999 13.5783 56.6485C12.1215 55.1971 10.1456 54.3818 8.08531 54.3818C6.02503 54.3818 6.43689 56.6485 2.5923 56.6485C-1.2523 56.6485 0.317014 60.0684 0.317014 62.121C0.317014 64.1735 0.080226 67.5934 2.5923 67.5934C5.10437 67.5934 6.02503 69.8602 8.08531 69.8602Z" fill="white"/>
</svg>
