<svg width="69" height="68" viewBox="0 0 69 68" fill="none" xmlns="http://www.w3.org/2000/svg">
<path d="M21.5231 8.93737V21.5278C21.5231 21.5278 13.1295 25.7246 8.93269 21.5278C4.73588 17.331 8.93269 8.93737 8.93269 8.93737H21.5231ZM25.72 0.543741C17.5246 3.74087 12.9313 3.934 4.73588 0.543741C3.62281 0.543741 2.55534 0.985903 1.76828 1.77296C0.981225 2.56001 0.539063 3.62749 0.539062 4.74056C3.41688 12.7618 3.26698 17.3632 0.539062 25.7246C0.539063 26.8377 0.981225 27.9052 1.76828 28.6922C2.55534 29.4793 3.45716 29.9215 6.19493 29.9215C8.9327 29.9215 7.57201 26.5115 15.1459 29.2657C22.7199 32.0199 27.9005 29.4793 28.6876 28.6922C29.4746 27.9052 29.9168 26.8377 29.9168 25.7246C28.0322 17.3637 27.9262 12.7619 29.9168 4.74056C29.9168 3.62749 29.4746 2.56001 28.6876 1.77296C28.3464 0.624606 27.2436 0.211652 25.72 0.543741ZM21.5231 46.7087C25.72 50.9055 21.5231 59.2992 21.5231 59.2992H8.93269V46.7087C8.93269 46.7087 17.3263 42.5119 21.5231 46.7087ZM25.72 38.3151C17.5254 40.9172 12.9306 40.2911 4.73588 38.3151C3.62281 38.3151 2.55534 38.7572 1.76828 39.5443C0.981225 40.3314 0.539063 41.3988 0.539062 42.5119C1.78325 50.551 2.06419 55.1106 0.539062 63.496C0.539063 64.609 0.981225 65.6765 1.76828 66.4636C2.55534 67.2506 3.62281 67.6928 4.73588 67.6928C12.9307 65.9182 17.5252 65.7566 25.72 67.6928C26.833 67.6928 27.9005 67.2506 28.6876 66.4636C29.4746 65.6765 29.9168 64.609 29.9168 63.496C28.2483 55.3015 28.5176 50.7064 29.9168 42.5119C29.9168 41.3988 29.4746 40.3314 28.6876 39.5443C27.9005 38.7572 26.833 38.3151 25.72 38.3151ZM59.2945 8.93737C63.9831 13.626 59.2945 21.5278 59.2945 21.5278H46.704V8.93737C46.704 8.93737 54.6059 4.24874 59.2945 8.93737ZM63.4913 0.543741C55.4843 3.19786 50.8818 3.11646 42.5072 0.543741C41.3942 0.543741 40.3267 0.985903 39.5396 1.77296C38.7526 2.56001 38.3104 3.62749 38.3104 4.74056C41.557 12.9357 42.0945 17.5296 38.3104 25.7246C38.3104 26.8377 38.7526 27.9052 39.5396 28.6922C40.3267 29.4793 41.3942 29.9215 42.5072 29.9215C42.5072 29.9215 43.8351 28.069 52.9993 29.9215C62.1634 31.774 63.4913 29.9215 63.4913 29.9215C62.3403 26.592 63.7047 25.2159 64.9176 24.0031C66.1304 22.7903 70.1957 20.1715 67.1307 17.3638C64.0657 14.5561 67.088 8.31029 67.6717 6.59288C68.2555 4.87547 67.2459 2.56001 66.4589 1.77296C65.6718 0.985903 64.6044 0.543741 63.4913 0.543741Z" fill="white"/>
<path d="M63.4913 67.6925C60.6934 67.6925 59.2944 66.2936 59.2944 63.4957V55.1021C59.2944 52.3042 60.6934 50.9053 63.4913 50.9053C66.2891 50.9053 67.6881 52.3042 67.6881 55.1021V63.4957C67.6881 66.2936 66.2891 67.6925 63.4913 67.6925Z" fill="white"/>
<path d="M42.5074 55.1017C39.7095 55.1017 38.3105 53.7028 38.3105 50.9049V42.5113C38.3105 39.7134 39.7095 38.3145 42.5074 38.3145C45.3052 38.3145 46.7042 39.7134 46.7042 42.5113V50.9049C46.7042 53.7028 45.3052 55.1017 42.5074 55.1017Z" fill="white"/>
<path d="M52.9991 50.9053C55.7969 50.9053 57.1959 52.3042 57.1959 55.1021V63.4957C57.1959 66.2936 55.7969 67.6925 52.9991 67.6925C50.2012 67.6925 48.8022 66.2936 48.8022 63.4957V55.1021C48.8022 52.3042 50.2012 50.9053 52.9991 50.9053Z" fill="white"/>
<path d="M42.5074 67.6925C39.7095 67.6925 38.3105 66.2935 38.3105 63.4956C38.3105 60.6978 39.7095 59.2988 42.5074 59.2988C45.3052 59.2988 46.7042 60.6978 46.7042 63.4956C46.7042 66.2935 45.3052 67.6925 42.5074 67.6925Z" fill="white"/>
<path d="M52.9991 38.3145C55.7969 38.3145 57.1959 39.7134 57.1959 42.5113C57.1959 45.3091 55.7969 46.7081 52.9991 46.7081C50.2012 46.7081 48.8022 45.3091 48.8022 42.5113C48.8022 39.7134 50.2012 38.3145 52.9991 38.3145Z" fill="white"/>
<path d="M63.4913 46.7081C60.6934 46.7081 59.2944 45.3091 59.2944 42.5113C59.2944 39.7134 60.6934 38.3145 63.4913 38.3145C66.2891 38.3145 67.6881 39.7134 67.6881 42.5113C67.6881 45.3091 66.2891 46.7081 63.4913 46.7081Z" fill="white"/>
</svg>
