<svg width="2597" height="2174" viewBox="0 0 2597 2174" fill="none" xmlns="http://www.w3.org/2000/svg">
<path d="M2438.11 569.553C2397.71 567.153 2437.23 496.998 2344.61 496.997C2252 496.996 1718.5 577.053 2009 902.053C2299.5 1227.05 2009 1732.55 2009 1951.55C2009 2170.55 2251.61 2173.22 2251.61 2173.22C2268.61 2170.55 2326.61 2146.15 2268.61 2080.55C2196.11 1998.55 2341.11 2008.55 2365.11 2008.55C2389.11 2008.55 2418.61 2013.55 2424.11 1951.55C2429.61 1889.55 2497.11 1956.05 2496.61 1915.05C2496.11 1874.05 2375.11 1941.05 2365.11 1891.05C2355.11 1841.05 2454.11 1891.55 2429.61 1857.55C2405.11 1823.55 2384.11 1867.05 2344.61 1849.55C2305.11 1832.05 2313.61 1802.05 2356.11 1777.55C2398.61 1753.05 2497.61 1850.05 2559.11 1835.55C2620.61 1821.05 2592.61 1777.55 2572.11 1768.05C2551.61 1758.55 2529.56 1782 2477.11 1777.55C2454.39 1775.63 2432.61 1745.55 2456.61 1725.05C2480.61 1704.55 2512.11 1771.55 2540.11 1725.05C2568.11 1678.55 2509.11 1656.05 2485.61 1655.55C2462.11 1655.05 2401.61 1690.05 2370.61 1680.05C2339.61 1670.05 2320.06 1654.05 2337.56 1634.55C2355.06 1615.05 2402.11 1665.55 2418.61 1634.55C2435.11 1603.55 2399.11 1604.05 2377.61 1602.55C2356.11 1601.05 2296.11 1632.05 2268.61 1576.55C2241.11 1521.05 2330.61 1526.05 2406.61 1561.05C2482.61 1596.05 2497.61 1612.55 2540.11 1583.55C2582.61 1554.55 2519.11 1529.05 2497.61 1494.05C2476.11 1459.05 2529.11 1448.55 2524.11 1425.55C2519.11 1402.55 2435.61 1412.05 2418.61 1401.05C2401.61 1390.05 2413.11 1365.05 2445.11 1341.05C2477.11 1317.05 2429.11 1318.55 2413.11 1293.55C2397.11 1268.55 2391.61 1231.05 2435.61 1247.05C2479.61 1263.05 2520.61 1209.55 2456.61 1182.05C2392.61 1154.55 2296.61 1250.55 2288.61 1170.55C2280.61 1090.55 2367.11 1148.05 2383.11 1149.05C2399.11 1150.05 2435.61 1145.05 2456.61 1089.05C2477.61 1033.05 2398.61 1005.05 2413.11 973.053C2427.61 941.053 2494.61 966.553 2494.61 902.053C2494.61 837.553 2412.61 863.053 2398.61 791.053C2384.61 719.053 2451.11 713.553 2459.61 701.053C2468.11 688.553 2486.67 633.109 2427.11 633.553C2367.56 633.997 2377.61 588.553 2451.11 607.553C2524.61 626.553 2539.61 593.553 2517.11 577.053C2494.61 560.553 2488.61 572.553 2438.11 569.553Z" fill="white"/>
<path d="M158.499 1604.66C198.899 1607.06 159.386 1677.22 251.999 1677.22C344.611 1677.22 445.611 1587.06 618.5 1450.5C791.389 1313.94 587.611 918.326 587.611 539.661C587.611 160.997 505.5 0.992776 344.998 0.994736C327.998 3.66136 269.998 28.0614 327.998 93.6614C400.498 175.661 255.498 165.661 231.498 165.661C207.498 165.661 177.998 160.661 172.498 222.661C166.999 284.661 99.4985 218.161 99.9985 259.161C100.498 300.161 221.498 233.161 231.498 283.161C241.498 333.161 142.498 282.661 166.998 316.661C191.498 350.661 212.498 307.161 251.998 324.661C291.498 342.161 282.998 372.161 240.498 396.661C197.998 421.161 98.9983 324.161 37.4985 338.661C-24.0013 353.161 3.9985 396.661 24.4985 406.161C44.9985 415.661 67.0546 392.218 119.499 396.661C142.226 398.587 163.998 428.661 139.998 449.161C115.998 469.661 84.4985 402.661 56.4983 449.161C28.4981 495.661 87.4985 518.161 110.999 518.661C134.499 519.161 194.998 484.161 225.998 494.161C256.998 504.161 276.555 520.161 259.055 539.661C241.555 559.161 194.498 508.661 177.998 539.661C161.498 570.661 197.498 570.161 218.998 571.661C240.498 573.161 300.499 542.161 327.999 597.661C355.499 653.161 265.998 648.161 189.998 613.161C113.998 578.161 98.9983 561.661 56.4983 590.661C13.9983 619.661 77.4983 645.161 98.9983 680.161C120.498 715.161 67.4983 725.662 72.4983 748.662C77.4983 771.662 160.998 762.162 177.998 773.162C194.998 784.162 183.498 809.162 151.498 833.162C119.498 857.162 167.498 855.662 183.498 880.662C199.498 905.662 204.998 943.162 160.998 927.162C116.998 911.162 75.9983 964.662 139.998 992.162C203.998 1019.66 299.998 923.662 307.998 1003.66C315.998 1083.66 229.498 1026.16 213.498 1025.16C197.498 1024.16 160.998 1029.16 139.998 1085.16C118.998 1141.16 197.999 1169.16 183.498 1201.16C168.998 1233.16 101.998 1207.66 101.998 1272.16C101.998 1336.66 183.998 1311.16 197.999 1383.16C211.999 1455.16 145.499 1460.66 136.998 1473.16C128.498 1485.66 109.942 1541.11 169.498 1540.66C229.055 1540.22 218.999 1585.66 145.499 1566.66C71.9986 1547.66 56.9986 1580.66 79.4986 1597.16C101.999 1613.66 107.999 1601.66 158.499 1604.66Z" fill="white"/>
</svg>
