<svg width="2597" height="1677" viewBox="0 0 2597 1677" fill="none" xmlns="http://www.w3.org/2000/svg">
<path d="M2438.11 72.5566C2397.71 70.1566 2437.23 0.00139352 2344.61 0.000514419C2252 -0.000364683 2009 0.000161355 2009 0.000161355L2009 1673.56L2251.61 1676.22C2268.61 1673.56 2326.61 1649.16 2268.61 1583.56C2196.11 1501.56 2341.11 1511.56 2365.11 1511.56C2389.11 1511.56 2418.61 1516.56 2424.11 1454.56C2429.61 1392.56 2497.11 1459.06 2496.61 1418.06C2496.11 1377.06 2375.11 1444.06 2365.11 1394.06C2355.11 1344.06 2454.11 1394.56 2429.61 1360.56C2405.11 1326.56 2384.11 1370.06 2344.61 1352.56C2305.11 1335.06 2313.61 1305.06 2356.11 1280.56C2398.61 1256.06 2497.61 1353.06 2559.11 1338.56C2620.61 1324.06 2592.61 1280.56 2572.11 1271.06C2551.61 1261.56 2529.56 1285 2477.11 1280.56C2454.39 1278.63 2432.61 1248.56 2456.61 1228.06C2480.61 1207.56 2512.11 1274.56 2540.11 1228.06C2568.11 1181.56 2509.11 1159.06 2485.61 1158.56C2462.11 1158.06 2401.61 1193.06 2370.61 1183.06C2339.61 1173.06 2320.06 1157.06 2337.56 1137.56C2355.06 1118.06 2402.11 1168.56 2418.61 1137.56C2435.11 1106.56 2399.11 1107.06 2377.61 1105.56C2356.11 1104.06 2296.11 1135.06 2268.61 1079.56C2241.11 1024.06 2330.61 1029.06 2406.61 1064.06C2482.61 1099.06 2497.61 1115.56 2540.11 1086.56C2582.61 1057.56 2519.11 1032.06 2497.61 997.057C2476.11 962.057 2529.11 951.557 2524.11 928.557C2519.11 905.557 2435.61 915.057 2418.61 904.057C2401.61 893.057 2413.11 868.057 2445.11 844.057C2477.11 820.057 2429.11 821.557 2413.11 796.557C2397.11 771.557 2391.61 734.057 2435.61 750.057C2479.61 766.057 2520.61 712.557 2456.61 685.057C2392.61 657.557 2296.61 753.557 2288.61 673.557C2280.61 593.557 2367.11 651.057 2383.11 652.057C2399.11 653.057 2435.61 648.057 2456.61 592.057C2477.61 536.057 2398.61 508.057 2413.11 476.057C2427.61 444.057 2494.61 469.556 2494.61 405.056C2494.61 340.556 2412.61 366.056 2398.61 294.056C2384.61 222.056 2451.11 216.557 2459.61 204.057C2468.11 191.557 2486.67 136.113 2427.11 136.557C2367.56 137 2377.61 91.5566 2451.11 110.557C2524.61 129.557 2539.61 96.5566 2517.11 80.0566C2494.61 63.5566 2488.61 75.5566 2438.11 72.5566Z" fill="white"/>
<path d="M158.499 1604.11C198.899 1606.51 159.386 1676.67 251.999 1676.67C344.611 1676.67 587.611 1676.67 587.611 1676.67L587.611 3.11069L344.998 0.444077C327.998 3.1107 269.998 27.5107 327.998 93.1107C400.498 175.111 255.498 165.111 231.498 165.111C207.498 165.111 177.998 160.111 172.498 222.111C166.999 284.111 99.4985 217.611 99.9985 258.611C100.498 299.611 221.498 232.611 231.498 282.611C241.498 332.611 142.498 282.111 166.998 316.111C191.498 350.111 212.498 306.611 251.998 324.111C291.498 341.611 282.998 371.611 240.498 396.111C197.998 420.611 98.9983 323.611 37.4985 338.111C-24.0013 352.611 3.9985 396.111 24.4985 405.611C44.9985 415.111 67.0546 391.667 119.499 396.111C142.226 398.037 163.998 428.111 139.998 448.611C115.998 469.111 84.4985 402.111 56.4983 448.611C28.4981 495.111 87.4985 517.611 110.999 518.111C134.499 518.611 194.998 483.611 225.998 493.611C256.998 503.611 276.555 519.611 259.055 539.111C241.555 558.611 194.498 508.111 177.998 539.111C161.498 570.111 197.498 569.611 218.998 571.111C240.498 572.611 300.499 541.611 327.999 597.111C355.499 652.611 265.998 647.611 189.998 612.611C113.998 577.611 98.9983 561.111 56.4983 590.111C13.9983 619.111 77.4983 644.611 98.9983 679.611C120.498 714.611 67.4983 725.111 72.4983 748.111C77.4983 771.111 160.998 761.611 177.998 772.611C194.998 783.611 183.498 808.611 151.498 832.611C119.498 856.611 167.498 855.111 183.498 880.111C199.498 905.111 204.998 942.611 160.998 926.611C116.998 910.611 75.9983 964.111 139.998 991.611C203.998 1019.11 299.998 923.111 307.998 1003.11C315.998 1083.11 229.498 1025.61 213.498 1024.61C197.498 1023.61 160.998 1028.61 139.998 1084.61C118.998 1140.61 197.999 1168.61 183.498 1200.61C168.998 1232.61 101.998 1207.11 101.998 1271.61C101.998 1336.11 183.998 1310.61 197.999 1382.61C211.999 1454.61 145.499 1460.11 136.998 1472.61C128.498 1485.11 109.942 1540.55 169.498 1540.11C229.055 1539.67 218.999 1585.11 145.499 1566.11C71.9986 1547.11 56.9986 1580.11 79.4986 1596.61C101.999 1613.11 107.999 1601.11 158.499 1604.11Z" fill="white"/>
</svg>
