<svg width="1584" height="1677" viewBox="0 0 1584 1677" fill="none" xmlns="http://www.w3.org/2000/svg">
<path d="M1424.72 72.5566C1384.32 70.1566 1423.84 0.00139352 1331.22 0.000514419C1238.61 -0.000364683 995.611 0.000161355 995.611 0.000161355L995.611 1673.56L1238.22 1676.22C1255.22 1673.56 1313.22 1649.16 1255.22 1583.56C1182.72 1501.56 1327.72 1511.56 1351.72 1511.56C1375.72 1511.56 1405.22 1516.56 1410.72 1454.56C1416.22 1392.56 1483.72 1459.06 1483.22 1418.06C1482.72 1377.06 1361.72 1444.06 1351.72 1394.06C1341.72 1344.06 1440.72 1394.56 1416.22 1360.56C1391.72 1326.56 1370.72 1370.06 1331.22 1352.56C1291.72 1335.06 1300.22 1305.06 1342.72 1280.56C1385.22 1256.06 1484.22 1353.06 1545.72 1338.56C1607.22 1324.06 1579.22 1280.56 1558.72 1271.06C1538.22 1261.56 1516.17 1285 1463.72 1280.56C1441 1278.63 1419.22 1248.56 1443.22 1228.06C1467.22 1207.56 1498.72 1274.56 1526.72 1228.06C1554.72 1181.56 1495.72 1159.06 1472.22 1158.56C1448.72 1158.06 1388.22 1193.06 1357.22 1183.06C1326.22 1173.06 1306.67 1157.06 1324.17 1137.56C1341.67 1118.06 1388.72 1168.56 1405.22 1137.56C1421.72 1106.56 1385.72 1107.06 1364.22 1105.56C1342.72 1104.06 1282.72 1135.06 1255.22 1079.56C1227.72 1024.06 1317.22 1029.06 1393.22 1064.06C1469.22 1099.06 1484.22 1115.56 1526.72 1086.56C1569.22 1057.56 1505.72 1032.06 1484.22 997.057C1462.72 962.057 1515.72 951.557 1510.72 928.557C1505.72 905.557 1422.22 915.057 1405.22 904.057C1388.22 893.057 1399.72 868.057 1431.72 844.057C1463.72 820.057 1415.72 821.557 1399.72 796.557C1383.72 771.557 1378.22 734.057 1422.22 750.057C1466.22 766.057 1507.22 712.557 1443.22 685.057C1379.22 657.557 1283.22 753.557 1275.22 673.557C1267.22 593.557 1353.72 651.057 1369.72 652.057C1385.72 653.057 1422.22 648.057 1443.22 592.057C1464.22 536.057 1385.22 508.057 1399.72 476.057C1414.22 444.057 1481.22 469.556 1481.22 405.056C1481.22 340.556 1399.22 366.056 1385.22 294.056C1371.22 222.056 1437.72 216.557 1446.22 204.057C1454.72 191.557 1473.28 136.113 1413.72 136.557C1354.17 137 1364.22 91.5566 1437.72 110.557C1511.22 129.557 1526.22 96.5566 1503.72 80.0566C1481.22 63.5566 1475.22 75.5566 1424.72 72.5566Z" fill="white"/>
<path d="M158.499 1604.11C198.899 1606.51 159.386 1676.67 251.999 1676.67C344.611 1676.67 587.611 1676.67 587.611 1676.67L587.611 3.11069L344.998 0.444077C327.998 3.1107 269.998 27.5107 327.998 93.1107C400.498 175.111 255.498 165.111 231.498 165.111C207.498 165.111 177.998 160.111 172.498 222.111C166.999 284.111 99.4985 217.611 99.9985 258.611C100.498 299.611 221.498 232.611 231.498 282.611C241.498 332.611 142.498 282.111 166.998 316.111C191.498 350.111 212.498 306.611 251.998 324.111C291.498 341.611 282.998 371.611 240.498 396.111C197.998 420.611 98.9983 323.611 37.4985 338.111C-24.0013 352.611 3.9985 396.111 24.4985 405.611C44.9985 415.111 67.0546 391.667 119.499 396.111C142.226 398.037 163.998 428.111 139.998 448.611C115.998 469.111 84.4985 402.111 56.4983 448.611C28.4981 495.111 87.4985 517.611 110.999 518.111C134.499 518.611 194.998 483.611 225.998 493.611C256.998 503.611 276.555 519.611 259.055 539.111C241.555 558.611 194.498 508.111 177.998 539.111C161.498 570.111 197.498 569.611 218.998 571.111C240.498 572.611 300.499 541.611 327.999 597.111C355.499 652.611 265.998 647.611 189.998 612.611C113.998 577.611 98.9983 561.111 56.4983 590.111C13.9983 619.111 77.4983 644.611 98.9983 679.611C120.498 714.611 67.4983 725.111 72.4983 748.111C77.4983 771.111 160.998 761.611 177.998 772.611C194.998 783.611 183.498 808.611 151.498 832.611C119.498 856.611 167.498 855.111 183.498 880.111C199.498 905.111 204.998 942.611 160.998 926.611C116.998 910.611 75.9983 964.111 139.998 991.611C203.998 1019.11 299.998 923.111 307.998 1003.11C315.998 1083.11 229.498 1025.61 213.498 1024.61C197.498 1023.61 160.998 1028.61 139.998 1084.61C118.998 1140.61 197.999 1168.61 183.498 1200.61C168.998 1232.61 101.998 1207.11 101.998 1271.61C101.998 1336.11 183.998 1310.61 197.999 1382.61C211.999 1454.61 145.499 1460.11 136.998 1472.61C128.498 1485.11 109.942 1540.55 169.498 1540.11C229.055 1539.67 218.999 1585.11 145.499 1566.11C71.9986 1547.11 56.9986 1580.11 79.4986 1596.61C101.999 1613.11 107.999 1601.11 158.499 1604.11Z" fill="white"/>
</svg>
