<svg class="svg-icon" style="width: 1em;height: 1em;vertical-align: middle;fill: currentColor;overflow: hidden;" viewBox="0 0 1024 1024" version="1.1" xmlns="http://www.w3.org/2000/svg"><path d="M384 256v128h-128v-128h128m42.666667-85.333333H213.333333a42.666667 42.666667 0 0 0-42.666666 42.666666v213.333334a42.666667 42.666667 0 0 0 42.666666 42.666666h213.333334a42.666667 42.666667 0 0 0 42.666666-42.666666V213.333333a42.666667 42.666667 0 0 0-42.666666-42.666666zM384 640v128h-128v-128h128m42.666667-85.333333H213.333333a42.666667 42.666667 0 0 0-42.666666 42.666666v213.333334a42.666667 42.666667 0 0 0 42.666666 42.666666h213.333334a42.666667 42.666667 0 0 0 42.666666-42.666666V597.333333a42.666667 42.666667 0 0 0-42.666666-42.666666zM768 256v128h-128v-128h128m42.666667-85.333333H597.333333a42.666667 42.666667 0 0 0-42.666666 42.666666v213.333334a42.666667 42.666667 0 0 0 42.666666 42.666666h213.333334a42.666667 42.666667 0 0 0 42.666666-42.666666V213.333333a42.666667 42.666667 0 0 0-42.666666-42.666666z"  /><path d="M853.333333 853.333333m-42.666666 0l0 0q-42.666667 0-42.666667-42.666666l0-85.333334q0-42.666667 42.666667-42.666666l0 0q42.666667 0 42.666666 42.666666l0 85.333334q0 42.666667-42.666666 42.666666Z"  /><path d="M640 725.333333m-42.666667 0l0 0q-42.666667 0-42.666666-42.666666l0-85.333334q0-42.666667 42.666666-42.666666l0 0q42.666667 0 42.666667 42.666666l0 85.333334q0 42.666667-42.666667 42.666666Z"  /><path d="M661.333333 682.666667m42.666667 0l0 0q42.666667 0 42.666667 42.666666l0 85.333334q0 42.666667-42.666667 42.666666l0 0q-42.666667 0-42.666667-42.666666l0-85.333334q0-42.666667 42.666667-42.666666Z"  /><path d="M640 853.333333m-42.666667 0l0 0q-42.666667 0-42.666666-42.666666l0 0q0-42.666667 42.666666-42.666667l0 0q42.666667 0 42.666667 42.666667l0 0q0 42.666667-42.666667 42.666666Z"  /><path d="M661.333333 554.666667m42.666667 0l0 0q42.666667 0 42.666667 42.666666l0 0q0 42.666667-42.666667 42.666667l0 0q-42.666667 0-42.666667-42.666667l0 0q0-42.666667 42.666667-42.666666Z"  /><path d="M853.333333 640m-42.666666 0l0 0q-42.666667 0-42.666667-42.666667l0 0q0-42.666667 42.666667-42.666666l0 0q42.666667 0 42.666666 42.666666l0 0q0 42.666667-42.666666 42.666667Z"  /></svg>